<svg xmlns="http://www.w3.org/2000/svg" width="16" height="16" id="add">
  <path fill="#c2e4f8" d="M15.5 8.5a7 7 0 0 1-7 7 7 7 0 0 1-7-7 7 7 0 0 1 7-7 7 7 0 0 1 7 7z"></path>
  <path fill="#00d1b6" fill-rule="evenodd" d="M9.974 12.162V9.165"></path>
  <path fill="#249fe6" d="M8.5 1037.361c-4.136 0-7.5 3.364-7.5 7.5s3.364 7.5 7.5 7.5 7.5-3.364 7.5-7.5-3.364-7.5-7.5-7.5zm0 1c3.596 0 6.5 2.905 6.5 6.5 0 3.596-2.904 6.5-6.5 6.5a6.492 6.492 0 0 1-6.5-6.5c0-3.595 2.904-6.5 6.5-6.5z" color="#000" font-family="sans-serif" font-weight="400" overflow="visible" style="line-height:normal;text-indent:0;text-align:start;text-decoration-line:none;text-decoration-style:solid;text-decoration-color:#000;text-transform:none;block-progression:tb;isolation:auto;mix-blend-mode:normal" transform="translate(0 -1036.362)"></path>
  <path fill="#249fe6" fill-rule="evenodd" d="M8.492 1040.855a.5.5 0 0 0-.492.506v7a.5.5 0 1 0 1 0v-7a.5.5 0 0 0-.508-.506z" color="#000" font-family="sans-serif" font-weight="400" overflow="visible" style="line-height:normal;text-indent:0;text-align:start;text-decoration-line:none;text-decoration-style:solid;text-decoration-color:#000;text-transform:none;block-progression:tb;isolation:auto;mix-blend-mode:normal" transform="translate(0 -1036.362)"></path>
  <path fill="#249fe6" fill-rule="evenodd" d="M5 1044.361a.5.5 0 1 0 0 1h7a.5.5 0 1 0 0-1H5z" color="#000" font-family="sans-serif" font-weight="400" overflow="visible" style="line-height:normal;text-indent:0;text-align:start;text-decoration-line:none;text-decoration-style:solid;text-decoration-color:#000;text-transform:none;block-progression:tb;isolation:auto;mix-blend-mode:normal" transform="translate(0 -1036.362)"></path>
</svg>
